<?xml version="1.0" standalone="no"?>
<!DOCTYPE svg PUBLIC "-//W3C//DTD SVG 20010904//EN"
 "http://www.w3.org/TR/2001/REC-SVG-20010904/DTD/svg10.dtd">
<svg version="1.0" xmlns="http://www.w3.org/2000/svg"
 width="230.000000pt" height="178.000000pt" viewBox="0 0 230.000000 178.000000"
 preserveAspectRatio="xMidYMid meet">

<g transform="translate(0.000000,178.000000) scale(0.100000,-0.100000)"
fill="#000000" stroke="none">
<path d="M680 1541 l0 -61 363 0 c401 0 447 -5 564 -61 97 -46 208 -159 256
-259 78 -165 78 -325 0 -490 -48 -100 -159 -213 -256 -259 -117 -56 -163 -61
-559 -61 l-358 0 0 -61 0 -60 393 3 c333 4 401 7 451 21 193 56 350 187 437
362 167 338 22 757 -318 917 -128 60 -133 61 -570 65 l-403 4 0 -60z"/>
<path d="M260 1300 l0 -60 538 0 c321 0 563 -4 601 -10 115 -19 201 -81 248
-178 36 -76 39 -193 4 -263 -32 -68 -81 -120 -142 -154 l-54 -30 -297 -3 -298
-3 0 -60 0 -60 308 3 307 3 68 32 c132 63 224 186 249 333 41 237 -135 469
-378 500 -38 5 -313 9 -611 10 l-543 0 0 -60z"/>
<path d="M510 1050 l0 -60 425 0 425 0 0 60 0 60 -425 0 -425 0 0 -60z"/>
<path d="M670 780 l0 -60 175 0 175 0 0 60 0 60 -175 0 -175 0 0 -60z"/>
</g>
</svg>
