<?xml version="1.0" standalone="no"?>
<!DOCTYPE svg PUBLIC "-//W3C//DTD SVG 20010904//EN"
 "http://www.w3.org/TR/2001/REC-SVG-20010904/DTD/svg10.dtd">
<svg version="1.0" xmlns="http://www.w3.org/2000/svg"
 width="202.000000pt" height="182.000000pt" viewBox="0 0 202.000000 182.000000"
 preserveAspectRatio="xMidYMid meet">

<g transform="translate(0.000000,182.000000) scale(0.100000,-0.100000)"
fill="#000000" stroke="none">
<path d="M0 910 l0 -910 1010 0 1010 0 0 910 0 910 -1010 0 -1010 0 0 -910z
m1343 674 c317 -72 537 -344 537 -665 0 -305 -189 -563 -485 -660 -68 -22 -84
-23 -472 -27 l-403 -3 0 59 0 60 393 5 c426 4 422 4 544 66 266 134 377 467
246 741 -46 95 -159 211 -248 254 -124 60 -119 59 -542 64 l-393 4 0 59 0 59
376 0 c310 0 388 -3 447 -16z m-61 -235 c164 -35 301 -165 343 -324 65 -252
-104 -504 -365 -545 -36 -5 -176 -10 -312 -10 l-248 0 0 64 0 65 298 3 297 3
53 29 c222 123 222 439 0 562 l-53 29 -597 3 -598 3 0 64 0 65 565 0 c376 0
582 -4 617 -11z m-82 -299 l0 -60 -425 0 -425 0 0 60 0 60 425 0 425 0 0 -60z
m-340 -270 l0 -60 -175 0 -175 0 0 60 0 60 175 0 175 0 0 -60z"/>
</g>
</svg>
